<svg version="1.1" xmlns="http://www.w3.org/2000/svg" xmlns:xlink="http://www.w3.org/1999/xlink" width="781.80181" height="466.68696" viewBox="0,0,781.80181,466.68696"><g transform="translate(70.9009,38.46847)"><g stroke-miterlimit="10"><path d="M-70.9009,398.46847v-436.93694h781.80181v436.93694z" fill="#ffffff" stroke="none" stroke-width="0" stroke-linecap="butt"/><text transform="translate(85.00221,33.94) scale(0.90127,0.90127)" font-size="40" xml:space="preserve" fill="#000000" stroke="#000000" stroke-width="2" stroke-linecap="butt" font-family="Handwriting" font-weight="normal" text-anchor="start"><tspan x="0" dy="0">SHOOTER VS. SHOOTERS</tspan><tspan x="0" dy="46.150000000000006px"> </tspan><tspan x="0" dy="46.150000000000006px">a simple top-down shooter game</tspan></text><g><path d="M546.1612,347.59948l-80.49473,-71.50311l-106.8894,-94.94938" fill="none" stroke="#000000" stroke-width="20" stroke-linecap="round"/><path d="M585.43875,382.48955c-39.0143,43.92041 -106.24613,47.89759 -150.16654,8.88329c-43.92041,-39.0143 -47.89759,-106.24613 -8.88329,-150.16654c39.0143,-43.92041 106.24613,-47.89759 150.16654,-8.88329c43.92041,39.0143 47.89759,106.24613 8.88329,150.16654z" fill="#ff6679" stroke="#000000" stroke-width="20" stroke-linecap="butt"/><text transform="translate(502.34896,268.98298) rotate(131.61454) scale(2.59438,2.59438)" font-size="40" xml:space="preserve" fill="#000000" stroke="none" stroke-width="1" stroke-linecap="butt" font-family="Sans Serif" font-weight="normal" text-anchor="start"><tspan x="0" dy="0">3</tspan></text></g><g><path d="M267.9994,156.92806l-95.49325,107.77998l-71.91269,81.16539" fill="none" stroke="#000000" stroke-width="20" stroke-linecap="round"/><path d="M65.50352,385.47824c-44.28634,-39.23779 -48.37901,-106.94742 -9.14123,-151.23377c39.23779,-44.28634 106.94742,-48.37901 151.23377,-9.14123c44.28634,39.23779 48.37901,106.94742 9.14123,151.23377c-39.23779,44.28634 -106.94742,48.37901 -151.23377,9.14123z" fill="#669bff" stroke="#000000" stroke-width="20" stroke-linecap="butt"/><text transform="translate(179.71806,301.64483) rotate(-138.459) scale(2.61301,2.61301)" font-size="40" xml:space="preserve" fill="#000000" stroke="none" stroke-width="1" stroke-linecap="butt" font-family="Sans Serif" font-weight="normal" text-anchor="start"><tspan x="0" dy="0">9</tspan></text><path d="M194.33699,293.3976l-51.82851,-45.92015" fill="none" stroke="#000000" stroke-width="10" stroke-linecap="round"/></g></g></g></svg>